{
  "accessors": [
    {
      "bufferView": 2,
      "componentType": 5126,
      "count": 404,
      "max": [
        0.38829201459884644,
        0.34836301207542419,
        1
      ],
      "min": [
        -0.38829201459884644,
        -0.43448299169540405,
        -1
      ],
      "type": "VEC3"
    },
    {
      "bufferView": 2,
      "byteOffset": 4848,
      "componentType": 5126,
      "count": 404,
      "max": [
        1,
        1,
        1
      ],
      "min": [
        -1,
        -0.99999785423278809,
        -1
      ],
      "type": "VEC3"
    },
    {
      "bufferView": 3,
      "componentType": 5126,
      "count": 404,
      "max": [
        1,
        0.94801628589630127,
        0.88625991344451904,
        1
      ],
      "min": [
        -0.82629865407943726,
        -1,
        -1,
        1
      ],
      "type": "VEC4"
    },
    {
      "bufferView": 1,
      "componentType": 5126,
      "count": 404,
      "max": [
        0.97051000595092773,
        0.999767005443573
      ],
      "min": [
        0.044527601450681686,
        0.00023345100635197014
      ],
      "type": "VEC2"
    },
    {
      "bufferView": 0,
      "componentType": 5125,
      "count": 876,
      "max": [
        403
      ],
      "min": [
        0
      ],
      "type": "SCALAR"
    },
    {
      "bufferView": 2,
      "byteOffset": 9696,
      "componentType": 5126,
      "count": 306,
      "max": [
        0.026202399283647537,
        0.43448299169540405,
        0.64937400817871094
      ],
      "min": [
        -0.070006899535655975,
        0.31581899523735046,
        -0.61321902275085449
      ],
      "type": "VEC3"
    },
    {
      "bufferView": 2,
      "byteOffset": 13368,
      "componentType": 5126,
      "count": 306,
      "max": [
        0.99972701072692871,
        0.99992465972900391,
        0.99835121631622314
      ],
      "min": [
        -0.99797737598419189,
        -0.99903297424316406,
        -0.99815726280212402
      ],
      "type": "VEC3"
    },
    {
      "bufferView": 3,
      "byteOffset": 6464,
      "componentType": 5126,
      "count": 306,
      "max": [
        0.55664730072021484,
        0.99974709749221802,
        0.62540090084075928,
        1
      ],
      "min": [
        -0.53652650117874146,
        -0.99848747253417969,
        -0.99502986669540405,
        1
      ],
      "type": "VEC4"
    },
    {
      "bufferView": 1,
      "byteOffset": 3232,
      "componentType": 5126,
      "count": 306,
      "max": [
        0.9998900294303894,
        0.60330802202224731
      ],
      "min": [
        0.00010974099859595299,
        0.00010974099859595299
      ],
      "type": "VEC2"
    },
    {
      "bufferView": 0,
      "byteOffset": 3504,
      "componentType": 5125,
      "count": 1536,
      "max": [
        305
      ],
      "min": [
        0
      ],
      "type": "SCALAR"
    }
  ],
  "asset": {
    "extras": {
      "author": "PLUTO (https://sketchfab.com/dfomenco)",
      "license": "CC-BY-4.0 (http://creativecommons.org/licenses/by/4.0/)",
      "source": "https://sketchfab.com/3d-models/road-block-a-09b0653c8d4b402b99cda4d7b1c84f27",
      "title": "Road Block_A"
    },
    "generator": "Sketchfab-4.35.0",
    "version": "2.0"
  },
  "bufferViews": [
    {
      "buffer": 0,
      "byteLength": 9648,
      "byteOffset": 0,
      "name": "floatBufferViews",
      "target": 34963
    },
    {
      "buffer": 0,
      "byteLength": 5680,
      "byteOffset": 9648,
      "byteStride": 8,
      "name": "floatBufferViews",
      "target": 34962
    },
    {
      "buffer": 0,
      "byteLength": 17040,
      "byteOffset": 15328,
      "byteStride": 12,
      "name": "floatBufferViews",
      "target": 34962
    },
    {
      "buffer": 0,
      "byteLength": 11360,
      "byteOffset": 32368,
      "byteStride": 16,
      "name": "floatBufferViews",
      "target": 34962
    }
  ],
  "buffers": [
    {
      "byteLength": 43728,
      "uri": "scene.bin"
    }
  ],
  "images": [
    {
      "uri": "textures/block_low_metallicRoughness.png"
    },
    {
      "uri": "textures/block_low_normal.jpeg"
    },
    {
      "uri": "textures/block_low_baseColor.jpeg"
    },
    {
      "uri": "textures/petli_low_metallicRoughness.png"
    },
    {
      "uri": "textures/petli_low_normal.jpeg"
    },
    {
      "uri": "textures/petli_low_baseColor.jpeg"
    }
  ],
  "materials": [
    {
      "doubleSided": true,
      "name": "petli_low",
      "normalTexture": {
        "index": 4,
        "scale": 1,
        "texCoord": 0
      },
      "occlusionTexture": {
        "index": 3,
        "strength": 1,
        "texCoord": 0
      },
      "pbrMetallicRoughness": {
        "baseColorFactor": [
          1,
          1,
          1,
          1
        ],
        "baseColorTexture": {
          "index": 5,
          "texCoord": 0
        },
        "metallicFactor": 1,
        "metallicRoughnessTexture": {
          "index": 3,
          "texCoord": 0
        },
        "roughnessFactor": 1
      }
    },
    {
      "doubleSided": true,
      "name": "block_low",
      "normalTexture": {
        "index": 1,
        "scale": 0.90000000000000002,
        "texCoord": 0
      },
      "occlusionTexture": {
        "index": 0,
        "strength": 1,
        "texCoord": 0
      },
      "pbrMetallicRoughness": {
        "baseColorFactor": [
          1,
          1,
          1,
          1
        ],
        "baseColorTexture": {
          "index": 2,
          "texCoord": 0
        },
        "metallicFactor": 1,
        "metallicRoughnessTexture": {
          "index": 0,
          "texCoord": 0
        },
        "roughnessFactor": 1
      }
    }
  ],
  "meshes": [
    {
      "name": "defaultMaterial",
      "primitives": [
        {
          "attributes": {
            "NORMAL": 1,
            "POSITION": 0,
            "TANGENT": 2,
            "TEXCOORD_0": 3
          },
          "indices": 4,
          "material": 1,
          "mode": 4
        }
      ]
    },
    {
      "name": "defaultMaterial",
      "primitives": [
        {
          "attributes": {
            "NORMAL": 6,
            "POSITION": 5,
            "TANGENT": 7,
            "TEXCOORD_0": 8
          },
          "indices": 9,
          "material": 0,
          "mode": 4
        }
      ]
    }
  ],
  "nodes": [
    {
      "children": [
        1
      ],
      "name": "RootNode (gltf orientation matrix)",
      "rotation": [
        -0.70710678118654746,
        -0,
        -0,
        0.70710678118654757
      ]
    },
    {
      "children": [
        2
      ],
      "name": "RootNode (model correction matrix)"
    },
    {
      "children": [
        3,
        5
      ],
      "matrix": [
        1,
        0,
        0,
        0,
        0,
        -4.3711390063094768e-08,
        0.999999999999999,
        0,
        0,
        -0.999999999999999,
        -4.3711390063094768e-08,
        0,
        0,
        0,
        0,
        1
      ],
      "name": "Collada visual scene group"
    },
    {
      "children": [
        4
      ],
      "name": "block_low"
    },
    {
      "mesh": 0,
      "name": "defaultMaterial"
    },
    {
      "children": [
        6
      ],
      "name": "petli_low"
    },
    {
      "mesh": 1,
      "name": "defaultMaterial"
    }
  ],
  "samplers": [
    {
      "magFilter": 9729,
      "minFilter": 9987,
      "wrapS": 10497,
      "wrapT": 10497
    }
  ],
  "scene": 0,
  "scenes": [
    {
      "name": "OSG_Scene",
      "nodes": [
        0
      ]
    }
  ],
  "textures": [
    {
      "sampler": 0,
      "source": 0
    },
    {
      "sampler": 0,
      "source": 1
    },
    {
      "sampler": 0,
      "source": 2
    },
    {
      "sampler": 0,
      "source": 3
    },
    {
      "sampler": 0,
      "source": 4
    },
    {
      "sampler": 0,
      "source": 5
    }
  ]
}

